<?xml version="1.0" encoding="UTF-8"?>
<!-- Generator: Adobe Illustrator 23.0.1, SVG Export Plug-In . SVG Version: 6.00 Build 0)  -->
<svg version="1.1" id="Layer_1" xmlns="http://www.w3.org/2000/svg" xmlns:xlink="http://www.w3.org/1999/xlink" x="0px" y="0px" viewBox="0 0 33 31" style="enable-background:new 0 0 33 31;" xml:space="preserve">
<style type="text/css">
	.st0{fill:#FFFFFF;}
	.st1{fill:#00BBD7;}
</style>
<title>B95D4BF1-D17C-4AF7-9E5E-5483D1C62F27@1.5x</title>
<desc>Created with sketchtool.</desc>
<path class="st0" d="M31.3,0H1.7C1.3,0,1,0.3,1,0.7v29.6C1,30.7,1.3,31,1.7,31h29.6c0.4,0,0.7-0.3,0.7-0.7v-8.9  c0-0.4-0.3-0.7-0.7-0.7h-1.4c-0.4,0-0.7,0.3-0.7,0.7v6.2c0,0.4-0.3,0.7-0.7,0.7h-24c-0.4,0-0.7-0.3-0.7-0.7v-24  c0-0.4,0.3-0.7,0.7-0.7h24c0.4,0,0.7,0.3,0.7,0.7v6.2c0,0.4,0.3,0.7,0.7,0.7h1.4c0.4,0,0.7-0.3,0.7-0.7V0.7C32,0.3,31.7,0,31.3,0z"/>
<g>
	<path class="st1" d="M9,10.4h9.1c0.3,0,0.5,0.4,0.3,0.6l-2.6,3.1h3.8l4.8-5.9c0.2-0.3,0-0.6-0.3-0.6H9c-0.2,0-0.4,0.2-0.4,0.4v2   C8.6,10.3,8.7,10.4,9,10.4z"/>
	<path class="st1" d="M24.1,20.8h-8.9c-0.3,0-0.5-0.4-0.3-0.6l2.5-3.1h-3.8l-4.9,5.9c-0.2,0.3,0,0.6,0.3,0.6h15.1   c0.2,0,0.4-0.2,0.4-0.4v-2C24.5,20.9,24.3,20.8,24.1,20.8z"/>
</g>
</svg>